<svg xmlns="http://www.w3.org/2000/svg" viewBox="0 0 220.94 273.41"><defs><style>.cls-1{fill:#fff;}</style></defs><title>Asset 1</title><g id="Layer_2" data-name="Layer 2"><g id="Layer_1-2" data-name="Layer 1"><path d="M183.64,48.92l-.07.06c-.37.56-.92.52-1.48,0h0c-12.54-10.7-28-18.86-42.73-26.35C132.23,19.09,92.5-4,92.93.59c.31,3.32,8.77,10.3,11,13.3.4.53.39,1.24-.65,1.28-5.87.24-23.91-7.33-25-6.7-2.6,1.37,7.32,9.09,9,11.32.34.45.07.88-.54,1-4.17.58-21,1.5-24.23,2.3a.47.47,0,0,0-.2.73c1.67,1.51,8.38,3.78,11.21,4.6a.41.41,0,0,1,0,.78A110.21,110.21,0,0,0,40.4,48.38l0,0a1.9,1.9,0,0,1-2.74-.1h0C20.32,23-18.51,70.83,10.36,81.93h0c2.21.75,2.17,1.67,1.2,3.65h0c-7.63,16.19-9.1,50.28-7.16,70.87s12.92,50,31,68.09C46.54,235.67,57.26,241.82,69.74,248c23.11,11.49,58.83,13.51,85.2-.49a100.37,100.37,0,0,0,23.73-17c26-25,36.26-54.37,38-76.83s1.09-52.56-7.27-69.52h0a1.33,1.33,0,0,1,.66-1.84h0a17.49,17.49,0,0,0,10.25-11.25L220,72.2l.31-1.13.47-1.72-.47,1.71C225.53,52.14,196.41,29.18,183.64,48.92Zm29.55,17.43a13.31,13.31,0,0,1-6,7.78,43.74,43.74,0,0,1-5.52,2.46c-1.83.77-3.18,1.44-2.27,3.29.36.74,2.58,4.93,2.58,4.93,7.35,14.91,8.16,43.53,6.46,65.34-.94,12.14-6.3,43.43-35.54,71.62-11.77,11.35-21.87,16.35-32,20.4-18.41,7.39-43.31,6.31-61-.89a113.78,113.78,0,0,1-38.5-25.37c-17.3-17.3-27-45.38-28.66-63.12-2-21.26-.12-52.79,6.42-66.67,0,0,2.38-5.75,3-6.82s.35-2.38-1.83-3.06a41.39,41.39,0,0,1-8.55-3.7c-3.36-1.95-4-5.24-3.18-9.6,1.52-8,10.2-16.7,16.57-16.7,4.16,0,6.68,2.57,8.31,4.66S36.86,55,39.48,55c2,0,6.38-3.6,6.38-3.6C54.09,44.45,83,26.44,112.13,26.44c34.52,0,56.31,18.85,64.51,25.86a18.94,18.94,0,0,0,1.92,1.46,8.25,8.25,0,0,0,4.82,1.35c.76-.11,2.79,0,6.42-5a7.52,7.52,0,0,1,6.84-3.48c3.9,0,8.8,2.92,12.19,7.26C212,57.89,214.15,62.8,213.18,66.36Z"/><path d="M131.37,88.48c-8.39-10-15.77-18.88-19-26.07-.8-1.67-2.47-1.77-3.49.49h0c-3.46,7-10.49,15.58-18.46,25.3-16.15,19.7-36.25,44.21-36.25,68.34,0,32.48,25.41,58.91,56.64,58.91s56.64-26.43,56.64-58.91C167.49,131.71,147.47,107.74,131.37,88.48ZM110.86,207.42c-28.36,0-51.43-24.08-51.43-53.67,0-22.23,19.31-45.77,34.82-64.69,5.53-6.74,10.32-12.15,14.12-17.71l2.5-3.94c3.93,6.42,10.05,13.95,16.75,22,15.45,18.49,34.67,41.5,34.67,64.38C162.28,183.34,139.21,207.42,110.86,207.42Z"/><path d="M137.33,115a1.32,1.32,0,0,0-1.57-.24c-4.87,1.79-14.11,2.85-24.48,2.85S92,116.7,87.17,114.89c-1.24-.46-1.58-.26-1.94.11a12.44,12.44,0,0,0-3.81,8.61c0,9.77,13.11,17.43,29.85,17.43s29.85-7.66,29.85-17.43A12.44,12.44,0,0,0,137.33,115Z"/><path d="M180,73.46l-.47-1c-.14-.32-.35-.68-.58-1.09l-.37-.66-.45-.71c-.3-.51-.68-1-1.06-1.57s-.84-1.1-1.32-1.65L175,66c-.26-.27-.54-.54-.81-.81s-.56-.53-.85-.79-.58-.53-.89-.76l-.91-.74c-.31-.24-.63-.46-.94-.68s-.63-.44-.95-.64-.63-.41-.95-.59c-.64-.35-1.26-.71-1.87-1l-.89-.42-.85-.34c-.54-.23-1.05-.4-1.5-.56l-.63-.22-.55-.16-1-.3.07-.32.31-.09c.2,0,.51-.13.89-.18l.64-.1c.23,0,.48,0,.75,0a11.54,11.54,0,0,1,1.79.05l1,.13c.35.06.7.15,1.07.23a15.94,15.94,0,0,1,2.25.73c.39.14.75.34,1.13.53l.57.28.55.34c.36.23.75.44,1.1.71l1,.8a18,18,0,0,1,1.88,1.82,15.34,15.34,0,0,1,1.55,2,10.54,10.54,0,0,1,.62,1,11.06,11.06,0,0,1,.53,1,14.13,14.13,0,0,1,.74,2c.08.32.17.62.24.91s.11.59.15.86a7.71,7.71,0,0,1,.11,1.39c0,.37,0,.69,0,.89s0,.33,0,.33Z"/><path d="M173.45,78.18A14.4,14.4,0,0,0,158.88,64a14.55,14.55,0,0,0-14.37,11.92l-.58-.24c-.58-.25-1.12-.41-1.55-.56s-.8-.22-1-.29l-.38-.08-.17.25,1.1.8,1.24,1,1.6,1.25c2.34,1.84,5.4,4.37,8.38,7,1.51,1.29,3,2.59,4.38,3.84.69.62,1.35,1.23,2,1.82s1.19,1.15,1.73,1.66l1.43,1.44,1.06,1.14.87,1,.24-.19s0-.13-.11-.37-.17-.59-.35-1-.42-1-.74-1.53c-.18-.32-.37-.67-.59-1a2.51,2.51,0,0,0,.25,0A14.19,14.19,0,0,0,173.45,78.18ZM158.19,67A12.06,12.06,0,0,1,170.4,78.85,11.87,11.87,0,0,1,162,90.15c-.28-.41-.57-.82-.89-1.23-.54-.7-1.12-1.41-1.76-2.11-.31-.36-.64-.71-1-1.06l-.2-.21a6.17,6.17,0,0,0,2.27-1.73c1.85-2.25,1.88-5.29.06-6.78s-4.79-.89-6.65,1.36a6.2,6.2,0,0,0-1.19,2.3c-.74-.57-1.49-1.1-2.24-1.59s-1.57-1-2.32-1.44-1.26-.69-1.86-1A12.2,12.2,0,0,1,158.19,67Z"/><path d="M42.7,72.77s0-.12,0-.33,0-.52,0-.9a7.69,7.69,0,0,1,.1-1.39c0-.27.09-.56.15-.86s.15-.59.24-.91a14.16,14.16,0,0,1,.74-2A16.27,16.27,0,0,1,45,64.33a15.22,15.22,0,0,1,1.55-2,9.69,9.69,0,0,1,.91-.94c.33-.29.63-.61,1-.88l1-.8c.35-.26.74-.47,1.1-.7.18-.11.36-.23.55-.33l.57-.28c.38-.18.75-.38,1.13-.53a15.81,15.81,0,0,1,2.25-.73c.37-.08.72-.18,1.07-.23s.69-.1,1-.13A11.5,11.5,0,0,1,59,56.71c.27,0,.51,0,.75,0l.64.1c.38,0,.69.14.89.18l.31.09.07.32-1,.3-.55.16-.63.22c-.45.16-1,.33-1.5.56l-.85.34-.89.42c-.62.27-1.23.63-1.87,1-.32.18-.63.39-.95.59s-.64.4-1,.64-.63.44-.94.68l-.91.74c-.31.23-.59.51-.89.76s-.58.51-.85.79-.55.53-.81.81l-.75.83c-.48.55-.92,1.11-1.32,1.65s-.77,1.06-1.06,1.57l-.45.71-.37.66c-.23.41-.44.77-.58,1.09l-.47,1Z"/><path d="M82.86,74.71l-.38.08c-.24.07-.6.14-1,.29s-1,.32-1.55.56L79,76A14.44,14.44,0,0,0,64.77,64.08,14.29,14.29,0,0,0,50.32,78.18,14.08,14.08,0,0,0,60.43,91.62a2.49,2.49,0,0,0,.45.07c-.23.39-.45.76-.63,1.11-.32.57-.55,1.11-.73,1.53s-.27.78-.35,1-.11.37-.11.37l.24.19.87-1,1.06-1.14,1.43-1.44c.53-.52,1.1-1.09,1.73-1.66s1.28-1.2,2-1.82c1.28-1.16,2.66-2.37,4.05-3.57l.08-.05.1-.11.13-.12c3-2.61,6-5.14,8.38-7l1.6-1.25,1.24-1L83,75ZM53.25,78.85A12.06,12.06,0,0,1,65.47,67a12.2,12.2,0,0,1,12,9.78c-.55.27-1.13.56-1.71.91-.75.44-1.54.91-2.32,1.44s-1.27.87-1.91,1.35a6.3,6.3,0,0,0-1.13-2.09c-1.86-2.26-4.85-2.88-6.68-1.38s-1.79,4.55.07,6.82a6.26,6.26,0,0,0,2,1.61l-.34.34c-.34.35-.67.7-1,1.06-.64.7-1.22,1.42-1.76,2.11-.33.42-.63.85-.91,1.26h-.06A11.87,11.87,0,0,1,53.25,78.85Z"/><path d="M153.14,154.23l-.08-.61-.14-.64a10.73,10.73,0,0,0-.42-1.35c-.08-.23-.2-.46-.3-.69a6,6,0,0,0-.34-.69c-.13-.22-.25-.45-.39-.68l-.44-.65a12.85,12.85,0,0,0-1-1.21,10.86,10.86,0,0,0-1.11-1,11.05,11.05,0,0,0-1.15-.83,10.88,10.88,0,0,0-1.13-.59,7.16,7.16,0,0,0-1-.36,5,5,0,0,0-.81-.18,7,7,0,0,0-.72-.06s.2.19.53.46c.17.13.35.34.58.52s.45.45.71.69.51.54.79.82.56.6.83.95.56.68.85,1l.53.7-.11.09c-.35.29-.78.59-1.24.95l-.73.55L146,152c-.59.37-1.2.8-1.92,1.16s-1.43.82-2.25,1.17l-1.24.59c-.43.19-.88.36-1.33.55a56.26,56.26,0,0,1-6,2c-2.17.58-4.46,1.14-6.88,1.54-1.2.23-2.43.4-3.68.57-.62.1-1.25.15-1.89.22s-1.27.16-1.91.2c-1.28.09-2.57.2-3.87.25s-2.6.09-3.91.1c-2.61,0-5.22-.07-7.78-.28-1.28-.09-2.55-.23-3.8-.37-.63-.06-1.24-.17-1.86-.25s-1.23-.16-1.83-.27c-1.2-.22-2.39-.42-3.53-.69-.57-.13-1.15-.24-1.7-.38L89,157.68c-1.09-.26-2.1-.65-3.12-.94s-2-.69-2.85-1.07-1.77-.73-2.55-1.15l-1.17-.58c-.38-.19-.72-.42-1.06-.62l-1-.59-.89-.61A14.87,14.87,0,0,1,74.86,151l-1.19-1-.1-.1.59-.78c.29-.35.56-.71.85-1s.57-.64.83-.95.54-.58.79-.82.48-.5.71-.69.41-.4.58-.52c.34-.28.53-.46.53-.46a7,7,0,0,0-.72.06,5,5,0,0,0-.81.18,7.16,7.16,0,0,0-1,.36,10.88,10.88,0,0,0-1.13.59,11,11,0,0,0-1.15.83,10.86,10.86,0,0,0-1.11,1,12.85,12.85,0,0,0-1,1.21l-.44.65c-.14.22-.26.45-.39.68a6,6,0,0,0-.34.69c-.1.23-.22.45-.3.69a10.73,10.73,0,0,0-.42,1.35l-.14.64-.08.61a6.56,6.56,0,0,0,0,1.08,4,4,0,0,0,.06.81c.07.44.13.7.13.7s.13-.23.3-.65c.08-.21.2-.45.33-.72s.27-.56.44-.88.34-.66.54-1,.42-.71.63-1.09.46-.75.72-1.13c.13-.19.26-.38.38-.57l.33-.45h0c.27.37.61.79,1,1.27a15.76,15.76,0,0,0,1.34,1.49c.25.26.51.54.8.81l.93.8c.32.27.65.57,1,.83l1.12.81c.76.58,1.63,1.06,2.51,1.61.44.29.92.51,1.4.76l1.47.76,1.56.69c.53.24,1.07.47,1.63.67l1.7.63c.58.2,1.17.37,1.76.56,1.19.4,2.43.68,3.68,1a64.11,64.11,0,0,0,7.86,1.33c1.35.17,2.71.25,4.08.34.69,0,1.37,0,2.06.07s1.38,0,2.07,0a75.33,75.33,0,0,0,8.2-.51,64.52,64.52,0,0,0,7.84-1.42,57.36,57.36,0,0,0,7.13-2.22,45.6,45.6,0,0,0,6-2.9c.45-.26.89-.51,1.31-.77l1.21-.82a24.59,24.59,0,0,0,2.14-1.61,18.83,18.83,0,0,0,1.75-1.57l.75-.73.62-.72c.39-.46.75-.85,1-1.22l0,0,.39.54c.12.2.25.38.38.57.26.37.48.76.72,1.13s.45.73.63,1.09.39.69.54,1,.32.61.44.88.25.51.33.72c.17.41.3.65.3.65s.07-.26.13-.7a4,4,0,0,0,.06-.81A6.56,6.56,0,0,0,153.14,154.23Z"/><path d="M148.1,273.41c-9.22,0-19.45-4.15-26.17-7.73a18.88,18.88,0,0,1-11.16,3.81,15.09,15.09,0,0,1-10.11-3.71c-6,2.05-12.88,3.86-18.14,5.25l-.61.16a36.61,36.61,0,0,1-9.19,1.42,19.87,19.87,0,0,1-3.25-.26c-12.59-2.1-13-13.65-13.15-19.85l0-.8c-.24-7.08,1.6-12.59,5.47-16.36,2.4-2.34,6.83-5.14,14.26-5.14,9.44,0,19.88,4.44,26.5,8.13A19.45,19.45,0,0,1,113.38,235a16.06,16.06,0,0,1,9.56,3c6.1-2,13.09-3.84,18.45-5.22l.76-.2a37.81,37.81,0,0,1,9.26-1.39,20.23,20.23,0,0,1,3.28.26C167.4,233.52,167.78,245,168,251.2l0,.79c.25,7-1.58,12.46-5.43,16.22-2.43,2.37-6.9,5.19-14.47,5.19Z"/><path class="cls-1" d="M162.9,251.63c-.24-7.07-.13-14.58-8.12-16-3.15-.55-6.93.27-10,1.1-6.17,1.68-13,3.32-19.62,5.85h0a14.42,14.42,0,0,1,.56,1.82c.12.51.16.9.21,1.17l.07.41-.56.11s-.14-.12-.36-.36l-.92-1c-.42-.37-.8-.76-1.36-1.19a14.26,14.26,0,0,0-1.7-1.23c-.16-.09-.3-.19-.45-.28s-.33-.16-.48-.24-.3-.17-.47-.24l-.5-.2c-.32-.14-.66-.24-1-.35s-.66-.21-1-.26-.7-.13-1-.21l-.55-.06a4,4,0,0,0-.54-.07,14.27,14.27,0,0,0-2.25-.06,15.34,15.34,0,0,0-2.27.19,4.91,4.91,0,0,0-.55.1,5.57,5.57,0,0,0-.56.09l-.54.13-.53.14a13.8,13.8,0,0,0-2,.71,11.41,11.41,0,0,0-1.84,1A12.15,12.15,0,0,0,103,244l-.66.68-.54.65c-.35.41-.59.78-.78,1s-.3.4-.3.4h-.57v-.43a10.14,10.14,0,0,1,.07-1.21l.12-.87c.06-.28.14-.58.22-.9-11.63-8.14-40-19.45-39.14,7.5.22,7.1.11,14.66,8,16,3.11.55,6.83-.28,9.81-1.12,6.27-1.75,14.06-3.75,20.76-6.45l-.11-.83a10.07,10.07,0,0,1-.07-1.22v-.43h.57s.12.14.3.4.43.62.78,1l.54.65.66.68a12.15,12.15,0,0,0,1.57,1.27,11.42,11.42,0,0,0,1.84,1,13.82,13.82,0,0,0,2,.71l.53.14.54.13a5.59,5.59,0,0,0,.56.09,4.88,4.88,0,0,0,.55.1,15.34,15.34,0,0,0,2.27.19,14.26,14.26,0,0,0,2.25-.06,4,4,0,0,0,.54-.07l.55-.06c.34-.08.71-.13,1-.21s.67-.2,1-.26.67-.22,1-.35l.5-.2c.17-.07.3-.17.47-.24s.33-.15.48-.24.29-.19.45-.28a14.23,14.23,0,0,0,1.7-1.23c.55-.43.93-.82,1.36-1.19l.92-1c.22-.23.36-.36.36-.36l.56.11-.07.41c-.05.27-.1.66-.21,1.17-.1.33-.19.72-.31,1.14C136.69,267.42,163.77,277.65,162.9,251.63Z"/></g></g></svg>