<svg xmlns="http://www.w3.org/2000/svg" viewBox="0 0 383.35 474.39"><defs><style>.cls-1{fill:#6b330e;}.cls-2{fill:#bf7030;}.cls-3{fill:#d9bf91;}.cls-4{opacity:0.6;}.cls-5{fill:#1fdd9e;}</style></defs><title>Asset 9</title><g id="Layer_2" data-name="Layer 2"><g id="Layer_2-2" data-name="Layer 2"><path class="cls-1" d="M318.63,84.89l-.13.1c-.64,1-1.6.91-2.57.08v0c-21.76-18.57-48.52-32.73-74.15-45.71C229.43,33.12,160.49-6.87,161.24,1c.54,5.76,15.21,17.87,19.07,23.08.69.93.67,2.15-1.12,2.22C169,26.74,137.7,13.6,135.82,14.7c-4.5,2.37,12.7,15.78,15.64,19.64.59.77.11,1.53-.94,1.67-7.24,1-36.48,2.61-42,4a.82.82,0,0,0-.34,1.26c2.9,2.63,14.54,6.56,19.46,8a.72.72,0,0,1,0,1.36A191.23,191.23,0,0,0,70.09,84l0,0c-1.49,1.24-3.81,1.27-4.76-.18h0c-30-43.92-97.42,39.16-47.32,58.41v0c3.84,1.3,3.77,2.9,2.08,6.33l0,0c-13.25,28.1-15.79,87.24-12.42,123s22.41,86.76,53.81,118.15c19.28,19.28,37.89,29.95,59.54,40.72,40.1,19.94,102.08,23.44,147.83-.85A174.15,174.15,0,0,0,310,400c45-43.42,62.91-94.34,65.94-133.31s1.9-91.2-12.61-120.63h0a2.3,2.3,0,0,1,1.14-3.18h0a30.34,30.34,0,0,0,17.78-19.52l-.54,1.95.54-2,.82-3-.82,3C391.32,90.46,340.79,50.64,318.63,84.89Z"/><path class="cls-2" d="M362.35,93.47c-5.89-7.54-14.39-12.6-21.16-12.6-2.64,0-7.46,0-11.88,6-6.31,8.65-9.83,8.54-11.15,8.73-2.05.29-5.87-.66-8.36-2.35a32.87,32.87,0,0,1-3.33-2.54c-14.23-12.15-52-44.86-111.94-44.86-50.48,0-100.69,31.26-115,43.27,0,0-7.63,6.24-11.06,6.24C64,95.39,60.92,92.11,58,88.3c-2.83-3.63-7.2-8.09-14.42-8.09-11.06,0-26.11,15.17-28.75,29-1.45,7.58-.31,13.29,5.52,16.66a71.81,71.81,0,0,0,14.84,6.41c3.77,1.18,4.2,3.46,3.17,5.32s-5.16,11.84-5.16,11.84C21.8,173.51,18.53,228.23,22,265.11c2.91,30.78,19.71,79.5,49.73,109.52a197.42,197.42,0,0,0,66.81,44c30.78,12.49,74,14.37,105.93,1.55,17.52-7,35-15.7,55.46-35.39,50.73-48.9,60-103.19,61.66-124.27,2.94-37.84,1.54-87.5-11.21-113.37,0,0-3.84-7.28-4.47-8.56-1.59-3.21.76-4.37,3.94-5.71,4.29-1.81,5.48-2,9.59-4.27a23.09,23.09,0,0,0,10.46-13.5C371.57,109,367.81,100.45,362.35,93.47Z"/><path class="cls-1" d="M227.95,153.52c-14.55-17.42-27.36-32.75-32.89-45.23h0c-1.38-2.89-4.29-3.06-6,.85h0c-6,12.13-18.2,27-32,43.9-28,34.18-62.89,76.71-62.89,118.58,0,56.36,44.09,102.22,98.28,102.22S290.62,328,290.62,271.61C290.62,228.54,255.87,186.94,227.95,153.52Z"/><path class="cls-3" d="M192.35,359.9c-49.2,0-89.23-41.78-89.23-93.13,0-38.56,33.5-79.42,60.41-112.25,9.59-11.7,17.91-21.09,24.5-30.72l4.34-6.84c6.82,11.14,17.44,24.2,29.06,38.1,26.8,32.08,60.16,72,60.16,111.71C281.58,318.12,241.55,359.9,192.35,359.9Z"/><path class="cls-1" d="M238.28,199.55a2.29,2.29,0,0,0-2.72-.42c-8.45,3.11-24.48,4.94-42.47,4.94s-33.39-1.58-41.83-4.72c-2.15-.8-2.74-.45-3.37.2-4.32,4.49-6.6,9.66-6.6,14.93,0,17,22.75,30.24,51.8,30.24s51.8-13.28,51.8-30.24C244.89,209.21,242.6,204,238.28,199.55Z"/><g class="cls-4"><path class="cls-1" d="M312.37,127.47l-.82-1.7c-.25-.55-.6-1.18-1-1.89l-.65-1.14-.78-1.24c-.51-.88-1.17-1.77-1.84-2.72s-1.46-1.9-2.29-2.86l-1.3-1.44c-.45-.48-.93-.93-1.4-1.4s-1-.93-1.48-1.37-1-.91-1.54-1.32l-1.58-1.28c-.53-.41-1.09-.79-1.63-1.18s-1.09-.76-1.65-1.1-1.09-.71-1.65-1c-1.12-.61-2.18-1.23-3.25-1.71l-1.54-.72-1.47-.59c-.94-.4-1.83-.69-2.61-1l-1.1-.39-.95-.27-1.8-.52.13-.56s.19-.06.55-.15.88-.23,1.54-.31l1.11-.17c.41-.05.83-.05,1.3-.08a20,20,0,0,1,3.11.09c.57.05,1.15.14,1.77.22s1.21.26,1.85.4a27.66,27.66,0,0,1,3.9,1.27c.67.25,1.3.6,2,.91l1,.49,1,.58c.63.4,1.3.77,1.9,1.23l1.81,1.39a31.24,31.24,0,0,1,3.26,3.16,26.62,26.62,0,0,1,2.68,3.48,18.29,18.29,0,0,1,1.08,1.8,19.19,19.19,0,0,1,.91,1.79,24.52,24.52,0,0,1,1.28,3.45c.15.56.3,1.07.41,1.58s.2,1,.26,1.5a13.38,13.38,0,0,1,.18,2.4c0,.65,0,1.2-.05,1.55s-.05.56-.05.56Z"/></g><path class="cls-1" d="M282,159.36a4.38,4.38,0,0,0,1.28-.19A24.62,24.62,0,0,0,301,135.65c0-13.59-11.34-24.65-25.27-24.65-12.37,0-23.11,9-25,20.88a4.36,4.36,0,0,0,2,4.4,123.42,123.42,0,0,1,26,21.66A4.37,4.37,0,0,0,282,159.36Z"/><path class="cls-3" d="M274.48,116.19c-10.37,0-19.38,7.51-20.95,17.47a1.93,1.93,0,0,0,.89,1.94,115.89,115.89,0,0,1,24.45,20.32,1.93,1.93,0,0,0,2,.54,20.6,20.6,0,0,0,14.81-19.66C295.67,125.44,286.16,116.19,274.48,116.19Z"/><path class="cls-1" d="M285.51,166.38,284,164.57l-1.84-2-2.48-2.49c-.93-.9-1.91-1.89-3-2.89s-2.22-2.07-3.42-3.15c-2.39-2.17-5-4.43-7.6-6.67-5.18-4.53-10.49-8.92-14.55-12.11l-2.77-2.17-2.15-1.65-1.91-1.39.29-.43s.23,0,.65.15,1.05.25,1.81.5,1.68.55,2.7,1,2.16.88,3.35,1.49,2.5,1.22,3.8,2,2.68,1.58,4,2.5,2.75,1.88,4.11,2.93,2.71,2.16,4.05,3.27,2.61,2.31,3.83,3.53q.93.89,1.8,1.82c.59.61,1.16,1.21,1.7,1.84,1.1,1.22,2.12,2.46,3.05,3.67s1.75,2.42,2.49,3.54a36.24,36.24,0,0,1,1.9,3.18c.55,1,.95,1.92,1.28,2.65s.46,1.35.61,1.76.19.64.19.64Z"/><ellipse class="cls-1" cx="272.59" cy="140.72" rx="9.15" ry="7.4" transform="translate(-9.35 261.63) rotate(-50.52)"/><path class="cls-1" d="M106.12,159.17a4.35,4.35,0,0,1-1.27-.19,24.43,24.43,0,0,1-17.55-23.33c0-13.49,11.25-24.46,25.07-24.46,12.27,0,22.93,8.91,24.79,20.72a4.32,4.32,0,0,1-2,4.36,122.46,122.46,0,0,0-25.85,21.49A4.34,4.34,0,0,1,106.12,159.17Z"/><path class="cls-3" d="M113.59,116.19c10.37,0,19.38,7.51,20.95,17.47a1.93,1.93,0,0,1-.89,1.94,115.89,115.89,0,0,0-24.45,20.32,1.93,1.93,0,0,1-2,.54A20.6,20.6,0,0,1,92.4,136.81C92.4,125.44,101.91,116.19,113.59,116.19Z"/><path class="cls-1" d="M102.46,166.06s.06-.23.19-.64.3-1,.61-1.76S104,162,104.53,161a36.13,36.13,0,0,1,1.89-3.18c.74-1.12,1.54-2.35,2.49-3.54s1.95-2.45,3-3.67c.54-.63,1.11-1.23,1.7-1.84s1.18-1.22,1.8-1.82c1.22-1.22,2.53-2.37,3.83-3.53s2.67-2.25,4-3.27,2.74-2,4.11-2.93,2.73-1.74,4-2.5,2.61-1.4,3.8-2,2.33-1.08,3.35-1.49,1.94-.72,2.69-1,1.4-.38,1.81-.5.65-.15.65-.15l.29.43-1.91,1.39L140,133.11l-2.77,2.17c-4.05,3.19-9.36,7.58-14.54,12.11-2.61,2.24-5.21,4.5-7.59,6.67-1.2,1.08-2.34,2.14-3.42,3.15s-2.07,2-3,2.89l-2.48,2.49-1.84,2-1.52,1.82Z"/><g class="cls-4"><path class="cls-1" d="M74.1,126.27s0-.2-.05-.57-.08-.9-.06-1.55a13.34,13.34,0,0,1,.18-2.41c.06-.47.16-1,.26-1.5s.27-1,.41-1.58a24.58,24.58,0,0,1,1.28-3.45,28.23,28.23,0,0,1,2-3.59,26.41,26.41,0,0,1,2.69-3.48,16.82,16.82,0,0,1,1.57-1.63c.56-.51,1.1-1.06,1.69-1.53l1.81-1.38c.61-.46,1.28-.82,1.9-1.22.32-.19.63-.4,1-.58l1-.49c.66-.32,1.3-.66,2-.91a27.44,27.44,0,0,1,3.9-1.27c.64-.14,1.24-.31,1.85-.4s1.2-.17,1.77-.22a20,20,0,0,1,3.11-.1c.47,0,.89,0,1.3.08l1.11.17c.66.08,1.19.24,1.54.31s.54.15.54.15l.13.56-1.8.52-.95.27-1.1.39c-.78.28-1.67.57-2.61,1l-1.47.59-1.54.72c-1.07.47-2.13,1.1-3.25,1.71-.55.31-1.09.68-1.65,1s-1.11.7-1.65,1.1-1.1.77-1.63,1.18l-1.58,1.28c-.54.41-1,.88-1.54,1.32s-1,.89-1.48,1.37-1,.93-1.4,1.4L82,114.95c-.83,1-1.6,1.93-2.29,2.86s-1.33,1.84-1.84,2.72l-.77,1.24-.65,1.14c-.41.72-.76,1.34-1,1.89l-.82,1.7Z"/></g><ellipse class="cls-1" cx="116.44" cy="140.68" rx="7.42" ry="9.21" transform="translate(-62.88 106.14) rotate(-39.48)"/><path class="cls-1" d="M265.72,267.61l-.13-1.06-.25-1.11a18.61,18.61,0,0,0-.73-2.35c-.14-.4-.34-.79-.52-1.19a10.39,10.39,0,0,0-.6-1.19c-.22-.39-.44-.79-.68-1.17l-.77-1.12a22.29,22.29,0,0,0-1.73-2.1,18.84,18.84,0,0,0-1.92-1.8,19.18,19.18,0,0,0-2-1.44,18.87,18.87,0,0,0-2-1,12.43,12.43,0,0,0-1.76-.63,8.74,8.74,0,0,0-1.4-.31A12.21,12.21,0,0,0,250,251s.34.33.93.81c.3.22.61.58,1,.9s.78.77,1.23,1.19.89.93,1.38,1.43,1,1,1.45,1.64,1,1.18,1.48,1.79l.92,1.21-.18.16c-.6.5-1.35,1-2.14,1.64l-1.26,1-1.47.94c-1,.64-2.08,1.39-3.33,2s-2.48,1.42-3.91,2l-2.15,1c-.75.32-1.53.62-2.31.95a97.61,97.61,0,0,1-10.36,3.55c-3.76,1-7.74,2-11.93,2.68-2.08.39-4.22.69-6.38,1-1.08.18-2.18.25-3.27.38s-2.2.27-3.31.35c-2.22.16-4.46.36-6.72.44s-4.52.15-6.78.18c-4.53,0-9.06-.12-13.51-.48-2.23-.15-4.42-.41-6.59-.64-1.09-.1-2.16-.29-3.22-.44s-2.13-.27-3.17-.47c-2.08-.39-4.14-.73-6.13-1.19-1-.23-2-.42-3-.66l-2.85-.76c-1.9-.45-3.65-1.12-5.42-1.63s-3.39-1.2-4.94-1.86-3.08-1.27-4.43-2l-2-1c-.65-.33-1.24-.73-1.85-1.07l-1.74-1c-.54-.35-1-.72-1.54-1.06a25.8,25.8,0,0,1-2.66-2l-2.07-1.71-.18-.18,1-1.35c.5-.6,1-1.23,1.48-1.79s1-1.11,1.45-1.64.93-1,1.38-1.43.84-.87,1.23-1.19.71-.69,1-.9c.58-.48.93-.81.93-.81a12.21,12.21,0,0,0-1.24.11,8.74,8.74,0,0,0-1.4.31,12.43,12.43,0,0,0-1.76.63,18.87,18.87,0,0,0-2,1,19.13,19.13,0,0,0-2,1.44,18.84,18.84,0,0,0-1.92,1.8,22.29,22.29,0,0,0-1.73,2.1l-.77,1.12c-.24.39-.45.79-.68,1.17a10.39,10.39,0,0,0-.6,1.19c-.18.4-.37.79-.52,1.19a18.61,18.61,0,0,0-.73,2.35l-.25,1.11-.13,1.06a11.38,11.38,0,0,0-.08,1.88,6.94,6.94,0,0,0,.11,1.41c.12.77.23,1.21.23,1.21s.22-.4.52-1.12c.14-.37.35-.79.57-1.25s.46-1,.76-1.52.59-1.15.94-1.75.73-1.24,1.09-1.89.8-1.31,1.25-2c.22-.33.45-.65.66-1l.57-.78h0c.47.65,1.05,1.37,1.71,2.2a27.34,27.34,0,0,0,2.32,2.58c.44.45.89.94,1.39,1.41l1.61,1.38c.56.47,1.12,1,1.75,1.45l1.95,1.4c1.31,1,2.82,1.84,4.36,2.8.76.5,1.59.89,2.42,1.32l2.55,1.31,2.71,1.19c.92.41,1.86.81,2.83,1.16l2.94,1.09c1,.35,2,.64,3.06,1,2.06.7,4.21,1.17,6.39,1.74a111.24,111.24,0,0,0,13.64,2.31c2.34.29,4.71.44,7.08.58,1.19.08,2.38.08,3.58.12s2.39.08,3.58,0a130.71,130.71,0,0,0,14.24-.88,111.94,111.94,0,0,0,13.61-2.46,99.53,99.53,0,0,0,12.36-3.86,79.13,79.13,0,0,0,10.48-5c.78-.46,1.54-.89,2.27-1.34l2.09-1.42a42.66,42.66,0,0,0,3.72-2.8,32.67,32.67,0,0,0,3-2.73l1.29-1.26,1.08-1.25c.68-.79,1.3-1.47,1.77-2.12l0-.07.68.94c.21.34.44.66.66,1,.45.65.84,1.32,1.25,2s.78,1.27,1.09,1.89.67,1.2.94,1.75.55,1.06.76,1.52.44.88.57,1.25c.3.72.52,1.12.52,1.12s.11-.44.23-1.21a6.94,6.94,0,0,0,.11-1.41A11.38,11.38,0,0,0,265.72,267.61Z"/><path class="cls-1" d="M257,474.39c-16,0-33.76-7.21-45.41-13.41a32.76,32.76,0,0,1-19.37,6.62,26.19,26.19,0,0,1-17.54-6.44c-10.45,3.56-22.35,6.7-31.48,9.11l-1.05.28a63.53,63.53,0,0,1-16,2.46,34.47,34.47,0,0,1-5.63-.45c-21.85-3.65-22.47-23.68-22.81-34.44l0-1.38c-.41-12.29,2.78-21.84,9.49-28.38,4.17-4.07,11.85-8.92,24.74-8.92,16.38,0,34.49,7.71,46,14.12a33.75,33.75,0,0,1,18.81-5.85,27.87,27.87,0,0,1,16.59,5.22c10.58-3.54,22.71-6.67,32-9.06l1.32-.34a65.6,65.6,0,0,1,16.06-2.41,35.1,35.1,0,0,1,5.68.44c22.06,3.63,22.72,23.59,23.07,34.31l0,1.38c.43,12.15-2.74,21.62-9.43,28.15-4.21,4.11-12,9-25.11,9Z"/><path class="cls-5" d="M282.66,436.6c-.41-12.26-.22-25.29-14.09-27.7-5.47-1-12,.48-17.29,1.91-10.71,2.92-22.63,5.76-34,10.14v0a25,25,0,0,1,1,3.16c.2.88.28,1.56.37,2l.12.72-1,.2s-.24-.21-.62-.62l-1.6-1.74c-.73-.64-1.4-1.32-2.35-2.07a24.75,24.75,0,0,0-2.94-2.13c-.28-.15-.52-.32-.78-.48s-.56-.28-.84-.42-.52-.3-.82-.41l-.86-.35c-.56-.23-1.15-.42-1.72-.61s-1.15-.37-1.78-.46-1.22-.23-1.81-.36l-.95-.1a6.86,6.86,0,0,0-.94-.12,24.75,24.75,0,0,0-3.9-.1,26.62,26.62,0,0,0-3.94.33,8.51,8.51,0,0,0-1,.18,9.67,9.67,0,0,0-1,.16L189,418c-.3.09-.61.16-.92.24a24,24,0,0,0-3.5,1.24,19.8,19.8,0,0,0-3.19,1.72,21.08,21.08,0,0,0-2.72,2.21l-1.15,1.17-.94,1.13c-.61.71-1,1.35-1.35,1.79s-.52.69-.52.69h-1l0-.75a17.6,17.6,0,0,1,.12-2.11l.2-1.5c.1-.49.24-1,.37-1.57-20.19-14.12-69.38-33.74-67.9,13,.39,12.33.19,25.43,13.85,27.84,5.39,1,11.84-.49,17-1.94,10.88-3,24.39-6.51,36-11.2l-.19-1.45a17.48,17.48,0,0,1-.12-2.11c0-.49,0-.75,0-.75h1s.2.25.52.69.74,1.08,1.35,1.79l.94,1.13,1.15,1.17a21.08,21.08,0,0,0,2.72,2.21,19.82,19.82,0,0,0,3.19,1.72,24,24,0,0,0,3.5,1.24c.31.08.62.15.92.24l.94.22a9.7,9.7,0,0,0,1,.16,8.47,8.47,0,0,0,1,.18,26.61,26.61,0,0,0,3.94.33,24.75,24.75,0,0,0,3.9-.1,6.87,6.87,0,0,0,.94-.12l.95-.1c.6-.13,1.22-.22,1.81-.36s1.16-.34,1.79-.46,1.16-.38,1.72-.61l.86-.35c.3-.11.52-.29.82-.41s.58-.26.84-.42.5-.33.78-.48a24.69,24.69,0,0,0,2.94-2.13c1-.75,1.62-1.43,2.35-2.07l1.6-1.74c.38-.41.62-.62.62-.62l1,.2-.12.72c-.09.47-.17,1.15-.37,2-.17.57-.32,1.25-.55,2C237.18,464,284.16,481.75,282.66,436.6Z"/></g></g></svg>